<svg width="227" height="222" viewBox="0 0 227 222" fill="none" xmlns="http://www.w3.org/2000/svg">
<ellipse cx="113" cy="115.376" rx="113" ry="106.5" fill="url(#paint0_linear_380_67)"/>
<rect x="19" y="10" width="155" height="174" rx="20" fill="#E48C39"/>
<rect x="37.7598" y="27" width="158.345" height="173.186" rx="20" transform="rotate(0.912992 37.7598 27)" fill="#F3B141" fill-opacity="0.7"/>
<path d="M101.316 100.763C101.886 100.763 102.432 100.536 102.835 100.133C103.238 99.7306 103.464 99.1843 103.465 98.6145V83.8451L87.2344 100.764L101.316 100.763Z" fill="#603D08" fill-opacity="0.65"/>
<path d="M125.109 81.9966C125.109 81.8611 125.126 81.7298 125.129 81.5948H107.7C107.74 81.7259 107.767 81.8606 107.781 81.997V98.6146C107.779 100.329 107.097 101.972 105.885 103.184C104.673 104.396 103.03 105.078 101.315 105.08H85.1641V153.687C85.1641 154.821 85.6145 155.908 86.4163 156.71C87.2181 157.512 88.3056 157.962 89.4395 157.962H142.917C144.051 157.962 145.138 157.512 145.94 156.71C146.742 155.908 147.193 154.821 147.193 153.687V100.844C144.464 101.298 141.669 101.149 139.004 100.409C136.339 99.6687 133.868 98.3549 131.765 96.5593C129.661 94.7638 127.975 92.53 126.825 90.0145C125.675 87.4989 125.09 84.7624 125.109 81.9966ZM122.246 146.685H115.878C114.153 146.683 112.489 146.041 111.211 144.882C109.932 143.723 109.13 142.131 108.958 140.414L100.183 146.319C99.7082 146.639 99.1256 146.757 98.5637 146.647C98.0017 146.537 97.5063 146.209 97.1866 145.734C96.8669 145.259 96.7489 144.676 96.8587 144.114C96.9685 143.552 97.297 143.057 97.772 142.737L107.447 136.229C108.006 135.852 108.658 135.634 109.332 135.599C110.006 135.564 110.676 135.713 111.272 136.031C111.867 136.348 112.365 136.821 112.712 137.4C113.06 137.978 113.243 138.64 113.242 139.315V139.735C113.243 140.434 113.521 141.103 114.016 141.597C114.51 142.091 115.179 142.369 115.878 142.369H122.246C122.534 142.362 122.821 142.413 123.089 142.518C123.357 142.624 123.601 142.781 123.807 142.982C124.013 143.184 124.177 143.424 124.288 143.689C124.4 143.955 124.458 144.24 124.458 144.527C124.458 144.815 124.4 145.1 124.288 145.366C124.177 145.631 124.013 145.871 123.807 146.072C123.601 146.274 123.357 146.431 123.089 146.537C122.821 146.642 122.534 146.692 122.246 146.685ZM122.246 127.713H97.3208C96.7569 127.7 96.2204 127.467 95.8261 127.064C95.4318 126.66 95.2111 126.119 95.2111 125.555C95.2111 124.991 95.4318 124.449 95.8261 124.046C96.2204 123.642 96.7569 123.409 97.3208 123.396H122.246C122.81 123.409 123.347 123.642 123.741 124.046C124.135 124.449 124.356 124.991 124.356 125.555C124.356 126.119 124.135 126.66 123.741 127.064C123.347 127.467 122.81 127.7 122.246 127.713ZM134.275 146.685H130.995C130.432 146.672 129.896 146.438 129.502 146.035C129.109 145.632 128.889 145.091 128.889 144.527C128.889 143.964 129.109 143.423 129.502 143.019C129.896 142.616 130.432 142.383 130.995 142.369H134.275C134.838 142.383 135.374 142.616 135.768 143.019C136.161 143.423 136.381 143.964 136.381 144.527C136.381 145.091 136.161 145.632 135.768 146.035C135.374 146.438 134.838 146.672 134.275 146.685ZM134.275 117.689H97.3208C96.7575 117.675 96.2219 117.441 95.8283 117.038C95.4348 116.635 95.2145 116.094 95.2145 115.53C95.2145 114.967 95.4348 114.426 95.8283 114.023C96.2219 113.619 96.7575 113.386 97.3208 113.372H134.275C134.838 113.386 135.374 113.619 135.768 114.023C136.161 114.426 136.381 114.967 136.381 115.53C136.381 116.094 136.161 116.635 135.768 117.038C135.374 117.441 134.838 117.675 134.275 117.689Z" fill="#603D08" fill-opacity="0.65"/>
<path d="M84.3002 81.0193V66.2505L68.0703 83.1682H82.1514C82.7212 83.1677 83.2675 82.9411 83.6703 82.5382C84.0732 82.1353 84.2997 81.589 84.3002 81.0193Z" fill="#603D08" fill-opacity="0.65"/>
<path d="M105.626 77.2773H125.725C126.21 75.3757 126.987 73.5608 128.028 71.8973V68.2754C128.028 67.1415 127.578 66.054 126.776 65.2522C125.974 64.4504 124.887 64 123.753 64H88.5355C88.576 64.1308 88.6032 64.2654 88.6167 64.4017V81.0193C88.6149 82.7334 87.9331 84.3768 86.721 85.5889C85.509 86.801 83.8655 87.4827 82.1514 87.4846H66V136.092C66 137.226 66.4505 138.313 67.2523 139.115C68.0541 139.917 69.1415 140.367 70.2755 140.367H80.8487V102.922C80.8486 101.808 81.2792 100.737 82.0505 99.9327L102.51 78.6058C102.913 78.1858 103.396 77.8516 103.932 77.6232C104.467 77.3949 105.043 77.2773 105.626 77.2773Z" fill="#603D08" fill-opacity="0.65"/>
<path d="M144.214 67.21C141.29 67.2099 138.431 68.0771 135.999 69.7018C133.568 71.3266 131.673 73.6359 130.553 76.3377C129.434 79.0396 129.141 82.0126 129.712 84.8809C130.282 87.7492 131.691 90.3839 133.759 92.4519C135.826 94.5198 138.461 95.9281 141.329 96.4986C144.198 97.0692 147.171 96.7763 149.873 95.6572C152.575 94.5381 154.884 92.6429 156.509 90.2112C158.134 87.7796 159.001 84.9208 159.001 81.9963C159.001 78.0748 157.443 74.3138 154.67 71.5409C151.897 68.7679 148.136 67.21 144.214 67.21ZM152.663 78.6252L144.223 88.3665C144.021 88.6002 143.77 88.7876 143.489 88.9162C143.207 89.0447 142.902 89.1112 142.592 89.1114H142.586C142.276 89.1105 141.969 89.0429 141.687 88.913C141.405 88.7831 141.155 88.594 140.952 88.3587L136.972 83.7143C136.599 83.2794 136.414 82.7143 136.458 82.1432C136.502 81.5721 136.771 81.0418 137.206 80.6691C137.641 80.2963 138.206 80.1116 138.777 80.1555C139.348 80.1995 139.878 80.4685 140.251 80.9033L142.602 83.6455L149.4 75.7983C149.586 75.584 149.812 75.4083 150.065 75.2813C150.319 75.1544 150.595 75.0786 150.877 75.0583C151.16 75.038 151.444 75.0736 151.713 75.163C151.982 75.2525 152.231 75.3941 152.445 75.5797C152.66 75.7653 152.835 75.9913 152.962 76.2447C153.089 76.4982 153.165 76.7742 153.185 77.057C153.205 77.3398 153.17 77.6238 153.08 77.8928C152.991 78.1618 152.849 78.4109 152.663 78.6252Z" fill="#603D08" fill-opacity="0.65"/>
<defs>
<linearGradient id="paint0_linear_380_67" x1="181" y1="39.3757" x2="23.5" y2="396.876" gradientUnits="userSpaceOnUse">
<stop stop-color="#495D9B"/>
<stop offset="1" stop-color="#192035"/>
</linearGradient>
</defs>
</svg>
