<svg width="249" height="249" viewBox="0 0 249 249" fill="none" xmlns="http://www.w3.org/2000/svg">
<ellipse cx="124" cy="124.376" rx="113" ry="106.5" fill="url(#paint0_linear_290_112)"/>
<rect x="46" y="37" width="155" height="174" rx="20" fill="#0185DA"/>
<rect y="120.987" width="175.811" height="175.811" rx="20" transform="rotate(-43.485 0 120.987)" fill="#B5DFEA" fill-opacity="0.7"/>
<path d="M157.767 159.25L133.092 134.575C131.133 136.141 128.881 137.382 126.335 138.296C123.79 139.209 121.081 139.666 118.208 139.666C111.093 139.666 105.071 137.202 100.143 132.274C95.2142 127.345 92.75 121.323 92.75 114.208C92.75 107.093 95.2142 101.071 100.143 96.1425C105.071 91.214 111.093 88.7498 118.208 88.7498C125.324 88.7498 131.345 91.214 136.274 96.1425C141.202 101.071 143.667 107.093 143.667 114.208C143.667 117.08 143.21 119.789 142.296 122.335C141.382 124.881 140.142 127.133 138.575 129.091L163.25 153.766L157.767 159.25ZM118.208 131.833C123.104 131.833 127.266 130.12 130.693 126.692C134.12 123.265 135.833 119.104 135.833 114.208C135.833 109.312 134.12 105.151 130.693 101.724C127.266 98.2966 123.104 96.5831 118.208 96.5831C113.313 96.5831 109.151 98.2966 105.724 101.724C102.297 105.151 100.583 109.312 100.583 114.208C100.583 119.104 102.297 123.265 105.724 126.692C109.151 130.12 113.313 131.833 118.208 131.833Z" fill="white"/>
<defs>
<linearGradient id="paint0_linear_290_112" x1="192" y1="48.3757" x2="34.5" y2="405.876" gradientUnits="userSpaceOnUse">
<stop stop-color="#495D9B"/>
<stop offset="1" stop-color="#192035"/>
</linearGradient>
</defs>
</svg>
