<svg width="1440" height="783" viewBox="0 0 1440 783" fill="none" xmlns="http://www.w3.org/2000/svg">
<g clip-path="url(#clip0_155_18)">
<rect width="1440" height="783" fill="#E7ECFF"/>
<path fill-rule="evenodd" clip-rule="evenodd" d="M685.101 1149.24C718.976 1212.14 749.122 1268.11 920.63 1177.61C1056.91 1105.69 1822.13 642.472 1822.13 642.472C1822.13 642.472 1794.51 391.714 1759.3 453.033C1724.09 514.353 1423.94 631.815 1509.09 464.246C1594.23 296.676 1060.87 495.925 986.073 594.127C899.518 707.769 1159.56 748.716 1035.5 810.243C911.441 871.769 1003.44 914.845 744.903 929.972C486.362 945.099 440.191 1060.64 538.072 1055.08C631.528 1049.77 659.389 1101.5 685.101 1149.24Z" fill="#099D49"/>
<path d="M1424.5 542C1562.51 542 1672 648.501 1672 777C1672 905.499 1562.51 1012 1424.5 1012C1286.49 1012 1177 905.499 1177 777C1177 648.501 1286.49 542 1424.5 542Z" stroke="white" stroke-width="60"/>
<path d="M1432 637.5C1521.75 637.5 1593 707.94 1593 793C1593 878.06 1521.75 948.5 1432 948.5C1342.25 948.5 1271 878.06 1271 793C1271 707.94 1342.25 637.5 1432 637.5Z" stroke="white" stroke-width="60"/>
<path d="M1440.5 734.5C1476.79 734.5 1508 765.282 1508 805.5C1508 845.718 1476.79 876.5 1440.5 876.5C1404.21 876.5 1373 845.718 1373 805.5C1373 765.282 1404.21 734.5 1440.5 734.5Z" stroke="white" stroke-width="60"/>
<path d="M1156.57 -157.998C1089.62 -114.052 936.336 -236.068 903.461 -178.505C870.585 -120.943 697.228 -49.5 558.729 -49.5C420.229 -49.5 348.729 38 231.228 65.9999C113.728 93.9998 36.7285 264.5 -84.2722 769C-85.8549 768.123 -87.3278 764.048 -88.7102 757.264L-151.772 590.5L-168.743 -164.355L1224.05 -599.148L1322.87 -282.575L1474.26 57.63C1310.91 7.53089 1223.52 -201.944 1156.57 -157.998Z" fill="#2BA9E4"/>
<path d="M93 65.4265L125.226 52.5265L135.426 23.0001L145.026 52.5265L177.853 65.4265L145.026 76.8265L135.426 107.853L125.226 76.8265L93 65.4265Z" fill="white"/>
<path d="M55 114.284L76.4843 105.684L83.2843 85.9999L89.6843 105.684L111.569 114.284L89.6843 121.884L83.2843 142.568L76.4843 121.884L55 114.284Z" fill="white"/>
<path d="M362.072 934.555L287.567 1063.16L-84.3081 795.4L4.34156 642.382L203.865 710.717L409.315 853.008L362.072 934.555Z" fill="#FEBD59"/>
</g>
<defs>
<clipPath id="clip0_155_18">
<rect width="1440" height="783" fill="white"/>
</clipPath>
</defs>
</svg>
