<svg width="247" height="247" viewBox="0 0 247 247" fill="none" xmlns="http://www.w3.org/2000/svg">
<ellipse cx="122.875" cy="123.24" rx="113" ry="106.5" fill="url(#paint0_linear_380_69)"/>
<rect x="44.875" y="35.8639" width="155" height="174" rx="20" fill="#0185DA"/>
<rect x="106.051" width="175.811" height="175.811" rx="20" transform="rotate(37.1 106.051 0)" fill="#B5DFEA" fill-opacity="0.7"/>
<rect x="196.938" y="23.0872" width="175.811" height="175.811" rx="20" transform="rotate(81.4092 196.938 23.0872)" fill="#B5DFEA" fill-opacity="0.7"/>
<path d="M121.203 102.72C130.276 102.72 137.631 95.3647 137.631 86.2918C137.631 77.2189 130.276 69.8639 121.203 69.8639C112.13 69.8639 104.775 77.2189 104.775 86.2918C104.775 95.3647 112.13 102.72 121.203 102.72Z" fill="#001624" fill-opacity="0.65"/>
<path d="M157.186 116.883L149.813 132.137L132.506 134.235L145.059 145.931L142.275 162.64L157.186 154.629L172.094 162.64L169.055 145.709L181.863 134.279L164.556 132.094L157.186 116.883Z" fill="#001624" fill-opacity="0.65"/>
<path d="M139.86 147.73L121.926 131.019L146.653 128.02L148.757 123.664C143.068 114.397 132.873 108.195 121.204 108.195C103.342 108.195 88.8633 122.676 88.8633 140.538V149.574V162.648H137.374L139.86 147.73Z" fill="#001624" fill-opacity="0.65"/>
<defs>
<linearGradient id="paint0_linear_380_69" x1="190.875" y1="47.2398" x2="33.375" y2="404.74" gradientUnits="userSpaceOnUse">
<stop stop-color="#495D9B"/>
<stop offset="1" stop-color="#192035"/>
</linearGradient>
</defs>
</svg>
