<svg width="100" height="100" viewBox="0 0 100 100" fill="none" xmlns="http://www.w3.org/2000/svg">
<path d="M11.9061 87.9999C12.9195 87.9294 13.8737 87.4835 14.5919 86.7447C15.3101 86.006 15.7436 85.0245 15.8122 83.9821V34.4286C15.8122 33.7182 16.0865 33.0368 16.5749 32.5345C17.0633 32.0322 17.7256 31.75 18.4163 31.75H86.1219V27.0625C86.1219 26.1745 85.7789 25.3229 85.1685 24.6949C84.558 24.067 83.7301 23.7143 82.8668 23.7143H39.8998C39.4704 23.7215 39.0439 23.6399 38.6458 23.4742C38.2477 23.3085 37.8861 23.0621 37.5824 22.7497C37.2787 22.4374 37.0392 22.0654 36.8781 21.6559C36.717 21.2464 36.6376 20.8078 36.6447 20.3661V16.3482C36.6447 15.4602 36.3017 14.6086 35.6913 13.9807C35.0809 13.3528 34.2529 13 33.3896 13H11.3592C10.4679 13.0242 9.62018 13.4023 8.99393 14.0552C8.36767 14.7082 8.01147 15.5851 8 16.5022V83.9821C8 85.0477 8.41153 86.0696 9.14407 86.8231C9.8766 87.5766 10.8701 87.9999 11.9061 87.9999Z" fill="black"/>
<path d="M88.725 37.1072H23.6234C22.9328 37.1072 22.2704 37.3894 21.7821 37.8917C21.2937 38.394 21.0194 39.0753 21.0194 39.7857V83.9821C20.9508 85.0245 20.5173 86.006 19.7991 86.7448C19.0809 87.4835 18.1267 87.9295 17.1133 88H87.423C88.4589 88 89.4525 87.5767 90.185 86.8232C90.9175 86.0697 91.3291 85.0477 91.3291 83.9821V39.7857C91.3291 39.0753 91.0547 38.394 90.5664 37.8917C90.078 37.3894 89.4156 37.1072 88.725 37.1072Z" fill="black"/>
</svg>
