<svg width="100" height="100" viewBox="0 0 100 100" fill="none" xmlns="http://www.w3.org/2000/svg">
<path d="M92.407 35.6875C92.1836 35.4348 91.9096 35.2319 91.6027 35.0919C91.2959 34.9519 90.963 34.878 90.6257 34.875H83.9695L83.5632 37.5937C83.4803 38.1457 83.2005 38.6491 82.7755 39.011C82.3505 39.3728 81.8089 39.5687 81.2507 39.5625H18.7507C18.1784 39.5659 17.6251 39.3568 17.198 38.9758C16.7708 38.5949 16.5001 38.069 16.4382 37.5L16.032 34.7812H9.37574C9.03848 34.7843 8.70561 34.8582 8.39875 34.9982C8.09188 35.1381 7.81787 35.341 7.59449 35.5938C7.38174 35.8529 7.22474 36.1532 7.13333 36.4758C7.04192 36.7985 7.01806 37.1365 7.06324 37.4687L14.5945 87.8437C14.6705 88.4014 14.9474 88.9122 15.3731 89.2804C15.7988 89.6486 16.3442 89.8489 16.907 89.8437H83.0945C83.6573 89.8489 84.2027 89.6486 84.6284 89.2804C85.0541 88.9122 85.331 88.4014 85.407 87.8437L92.9382 37.5C92.9747 37.1777 92.9465 36.8514 92.8553 36.5402C92.7641 36.229 92.6117 35.9391 92.407 35.6875Z" fill="black"/>
<path d="M73.4369 22.7187H78.1244L79.5931 12.8437C79.648 12.5102 79.629 12.1687 79.5377 11.8433C79.4463 11.5178 79.2846 11.2164 79.0642 10.9602C78.8437 10.704 78.5698 10.4992 78.2616 10.3603C77.9535 10.2214 77.6186 10.1517 77.2806 10.1562H22.6556C22.3177 10.1517 21.9828 10.2214 21.6747 10.3603C21.3665 10.4992 21.0926 10.704 20.8721 10.9602C20.6516 11.2164 20.49 11.5178 20.3986 11.8433C20.3072 12.1687 20.2883 12.5102 20.3431 12.8437L21.8744 22.7187H73.4369Z" fill="black"/>
<path d="M79.2507 34.875H83.9695L85.407 25.5C85.4522 25.1677 85.4283 24.8297 85.3369 24.5071C85.2455 24.1845 85.0885 23.8842 84.8757 23.625C84.6524 23.3723 84.3783 23.1694 84.0715 23.0294C83.7646 22.8894 83.4318 22.8155 83.0945 22.8125H78.1257L77.7195 25.5C77.6435 26.0577 77.3666 26.5685 76.9409 26.9367C76.5152 27.3049 75.9698 27.5052 75.407 27.5H24.532C23.9692 27.5052 23.4238 27.3049 22.9981 26.9367C22.5724 26.5685 22.2955 26.0577 22.2195 25.5L21.8757 22.7188H16.907C16.5697 22.7218 16.2369 22.7957 15.93 22.9357C15.6231 23.0756 15.3491 23.2785 15.1257 23.5313C14.913 23.7904 14.756 24.0907 14.6646 24.4133C14.5732 24.736 14.5493 25.074 14.5945 25.4063L16.032 34.7813H79.2507V34.875Z" fill="black"/>
</svg>
