<svg width="226" height="213" viewBox="0 0 226 213" fill="none" xmlns="http://www.w3.org/2000/svg">
<ellipse cx="113" cy="106.5" rx="113" ry="106.5" fill="url(#paint0_linear_423_82)"/>
<rect x="35" y="19" width="155" height="174" rx="20" fill="#0185DA"/>
<rect x="14" y="10" width="175.811" height="175.811" rx="20" fill="#B5DFEA" fill-opacity="0.7"/>
<rect x="35" y="24" width="175.811" height="175.811" rx="20" fill="#B5DFEA" fill-opacity="0.7"/>
<path d="M67.6876 151.004C68.9037 150.92 70.0488 150.385 70.9107 149.498C71.7726 148.612 72.2928 147.434 72.3751 146.183V86.7156C72.3751 85.863 72.7043 85.0454 73.2904 84.4426C73.8765 83.8398 74.6713 83.5011 75.5001 83.5011H156.751V77.8758C156.751 76.8102 156.339 75.7882 155.607 75.0346C154.874 74.2811 153.881 73.8578 152.845 73.8578H101.282C100.766 73.8665 100.255 73.7685 99.7769 73.5696C99.2991 73.3708 98.8651 73.0751 98.5007 72.7003C98.1362 72.3254 97.8488 71.879 97.6555 71.3876C97.4622 70.8962 97.3669 70.3698 97.3754 69.8397V65.0181C97.3754 63.9524 96.9638 62.9304 96.2312 62.1769C95.4987 61.4233 94.5051 61 93.4691 61H67.0313C65.9616 61.029 64.9443 61.4828 64.1928 62.2664C63.4412 63.0499 63.0138 64.1023 63 65.2029V146.183C63 147.462 63.4939 148.688 64.373 149.592C65.252 150.496 66.4443 151.004 67.6876 151.004Z" fill="#3A5969"/>
<path d="M159.876 89.9304C160.705 89.9304 161.5 90.269 162.086 90.8718C162.672 91.4746 163.001 92.292 163.001 93.1443V146.183C163.001 147.462 162.507 148.688 161.628 149.593C160.749 150.497 159.557 151.005 158.313 151.005H73.9375C75.1536 150.92 76.2983 150.384 77.1602 149.498C78.0219 148.611 78.5426 147.434 78.625 146.183V93.1443C78.6251 92.292 78.9542 91.4746 79.54 90.8718C80.1261 90.269 80.9212 89.9304 81.75 89.9304H159.876ZM120.604 106.602C111.988 106.603 105.003 113.587 105.003 122.203C105.003 130.819 111.988 137.803 120.604 137.803C129.22 137.803 136.205 130.819 136.205 122.203C136.205 113.587 129.22 106.602 120.604 106.602Z" fill="#3A5969"/>
<rect x="119.402" y="111.403" width="2.40012" height="13.2007" rx="1.20006" fill="#3A5969"/>
<rect x="129.004" y="122.203" width="2.40012" height="9.60049" rx="1.20006" transform="rotate(90 129.004 122.203)" fill="#3A5969"/>
<defs>
<linearGradient id="paint0_linear_423_82" x1="181" y1="30.5" x2="23.5" y2="388" gradientUnits="userSpaceOnUse">
<stop stop-color="#495D9B"/>
<stop offset="1" stop-color="#192035"/>
</linearGradient>
</defs>
</svg>
