<svg width="100" height="100" viewBox="0 0 100 100" fill="none" xmlns="http://www.w3.org/2000/svg">
<path d="M40.3805 42.3442C40.8706 42.3438 41.3405 42.163 41.6871 41.8415C42.0337 41.5199 42.2286 41.0839 42.229 40.6291V28.8402L28.2676 42.3447L40.3805 42.3442Z" fill="black"/>
<path d="M60.8469 27.3647C60.8469 27.2566 60.862 27.1518 60.8644 27.0441H45.8715C45.9063 27.1486 45.9297 27.2562 45.9414 27.3651V40.6291C45.9398 41.9973 45.3533 43.3091 44.3106 44.2765C43.268 45.244 41.8543 45.7881 40.3798 45.7896H26.4863V84.5873C26.4863 85.4924 26.8738 86.3604 27.5635 87.0004C28.2532 87.6404 29.1887 88 30.1641 88H76.1658C77.1412 88 78.0766 87.6404 78.7664 87.0004C79.4561 86.3604 79.8436 85.4924 79.8436 84.5873V42.4088C77.4965 42.7707 75.0926 42.6521 72.8001 42.0613C70.5076 41.4705 68.3821 40.4218 66.5723 38.9886C64.7626 37.5555 63.3124 35.7725 62.3233 33.7646C61.3343 31.7566 60.8305 29.5724 60.8469 27.3647ZM58.3846 78.9989H52.9067C51.4224 78.9972 49.9917 78.4842 48.8919 77.5593C47.7921 76.6344 47.1015 75.3635 46.9542 73.9931L39.4059 78.7066C38.9973 78.9618 38.4962 79.056 38.0127 78.9683C37.5293 78.8807 37.1032 78.6185 36.8282 78.2393C36.5531 77.8602 36.4517 77.3952 36.5461 76.9466C36.6406 76.498 36.9232 76.1027 37.3318 75.8474L45.6541 70.6524C46.1355 70.3515 46.696 70.1778 47.2756 70.15C47.8553 70.1221 48.4321 70.2412 48.9444 70.4943C49.4567 70.7475 49.8851 71.1252 50.1836 71.587C50.4822 72.0488 50.6397 72.5774 50.6393 73.1159V73.4512C50.6403 74.0088 50.8795 74.5433 51.3046 74.9375C51.7296 75.3316 52.3058 75.5533 52.9067 75.5539H58.3848C58.6324 75.5483 58.8788 75.5887 59.1093 75.6727C59.3398 75.7568 59.5499 75.8828 59.7271 76.0433C59.9044 76.2038 60.0452 76.3956 60.1414 76.6074C60.2376 76.8192 60.2871 77.0467 60.2871 77.2765C60.2871 77.5063 60.2376 77.7338 60.1414 77.9456C60.0452 78.1574 59.9044 78.3492 59.7271 78.5097C59.5499 78.6702 59.3398 78.7962 59.1093 78.8803C58.8788 78.9643 58.6322 79.0045 58.3846 78.9989ZM58.3846 63.8552H36.9436C36.4585 63.845 35.997 63.659 35.6579 63.337C35.3187 63.0151 35.1288 62.5827 35.1288 62.1325C35.1288 61.6823 35.3187 61.25 35.6579 60.928C35.997 60.606 36.4585 60.42 36.9436 60.4098H58.3848C58.8699 60.42 59.3314 60.606 59.6706 60.928C60.0097 61.25 60.1996 61.6823 60.1996 62.1325C60.1996 62.5827 60.0097 63.0151 59.6706 63.337C59.3314 63.659 58.8696 63.845 58.3846 63.8552ZM68.7319 78.9989H65.9103C65.4258 78.988 64.965 78.8017 64.6265 78.4798C64.288 78.1579 64.0985 77.726 64.0985 77.2763C64.0985 76.8265 64.288 76.3946 64.6265 76.0727C64.965 75.7509 65.4258 75.5646 65.9103 75.5536H68.7319C69.2165 75.5646 69.6772 75.7509 70.0157 76.0727C70.3543 76.3946 70.5438 76.8265 70.5438 77.2763C70.5438 77.726 70.3543 78.1579 70.0157 78.4798C69.6772 78.8017 69.2165 78.988 68.7319 78.9989ZM68.7319 55.8539H36.9436C36.459 55.8429 35.9983 55.6566 35.6598 55.3348C35.3212 55.0129 35.1317 54.581 35.1317 54.1312C35.1317 53.6815 35.3212 53.2495 35.6598 52.9277C35.9983 52.6058 36.459 52.4195 36.9436 52.4086H68.7319C69.2165 52.4195 69.6772 52.6058 70.0157 52.9277C70.3543 53.2495 70.5438 53.6815 70.5438 54.1312C70.5438 54.581 70.3543 55.0129 70.0157 55.3348C69.6772 55.6566 69.2165 55.8429 68.7319 55.8539Z" fill="black"/>
<path d="M25.7423 26.5846V14.7963L11.7812 28.2999H23.8939C24.384 28.2995 24.8539 28.1186 25.2005 27.797C25.547 27.4755 25.7419 27.0394 25.7423 26.5846Z" fill="black"/>
<path d="M44.0861 23.5979H61.3757C61.793 22.08 62.4614 20.6314 63.3572 19.3036V16.4126C63.3572 15.5075 62.9698 14.6395 62.28 13.9995C61.5903 13.3595 60.6549 13 59.6794 13H29.3851C29.42 13.1044 29.4434 13.2119 29.455 13.3206V26.5847C29.4535 27.9529 28.867 29.2647 27.8244 30.2321C26.7817 31.1996 25.368 31.7438 23.8935 31.7452H10V70.5433C10 71.4484 10.3875 72.3164 11.0772 72.9564C11.7669 73.5964 12.7024 73.9559 13.6778 73.9559H22.7729V44.0671C22.7729 43.1779 23.1433 42.323 23.8067 41.6813L41.4058 24.6583C41.7524 24.323 42.1686 24.0562 42.6292 23.874C43.0898 23.6918 43.5854 23.5978 44.0861 23.5979Z" fill="black"/>
<path d="M77.2801 15.5621C74.7645 15.5621 72.3053 16.2543 70.2135 17.5511C68.1218 18.848 66.4915 20.6913 65.5288 22.8479C64.5661 25.0045 64.3142 27.3775 64.8049 29.667C65.2957 31.9565 66.5071 34.0595 68.2859 35.7101C70.0648 37.3607 72.3312 38.4848 74.7985 38.9402C77.2658 39.3956 79.8233 39.1619 82.1475 38.2686C84.4716 37.3753 86.4582 35.8625 87.8558 33.9216C89.2534 31.9807 89.9994 29.6988 89.9994 27.3645C89.9994 24.2344 88.6594 21.2324 86.274 19.019C83.8887 16.8056 80.6535 15.5622 77.2801 15.5621ZM84.5477 24.6737L77.2878 32.4492C77.1135 32.6357 76.898 32.7853 76.6559 32.8879C76.4138 32.9905 76.1508 33.0436 75.8847 33.0437H75.8794C75.6124 33.043 75.3487 32.989 75.1062 32.8854C74.8638 32.7817 74.6482 32.6308 74.4742 32.4429L71.0499 28.7358C70.7293 28.3887 70.5704 27.9376 70.6082 27.4817C70.6459 27.0259 70.8773 26.6026 71.2514 26.3051C71.6255 26.0076 72.1117 25.8601 72.6029 25.8952C73.0942 25.9303 73.5503 26.145 73.871 26.4921L75.8931 28.6809L81.7408 22.4173C81.9004 22.2462 82.0948 22.106 82.3129 22.0047C82.5309 21.9033 82.7683 21.8428 83.0116 21.8266C83.2548 21.8104 83.4991 21.8388 83.7306 21.9102C83.962 21.9816 84.176 22.0946 84.3603 22.2428C84.5447 22.3909 84.6958 22.5713 84.805 22.7736C84.9142 22.976 84.9794 23.1963 84.9968 23.422C85.0143 23.6477 84.9837 23.8744 84.9067 24.0891C84.8298 24.3038 84.7073 24.5027 84.5477 24.6737Z" fill="black"/>
</svg>
