<svg width="96" height="96" viewBox="0 0 96 96" fill="none" xmlns="http://www.w3.org/2000/svg">
<path d="M20.4844 54H66C67.5913 54 69.1174 53.3679 70.2426 52.2427C71.3678 51.1175 72 49.5913 72 48C72 46.4087 71.3678 44.8826 70.2426 43.7574C69.1174 42.6322 67.5913 42 66 42H20.4844L28.2422 34.2422C29.3621 33.1161 29.9898 31.5918 29.9876 30.0035C29.9854 28.4153 29.3535 26.8927 28.2304 25.7696C27.1073 24.6466 25.5848 24.0147 23.9965 24.0125C22.4083 24.0102 20.884 24.6379 19.7578 25.7578L1.75779 43.7578C1.20052 44.3148 0.758453 44.9762 0.456846 45.7041C0.155238 46.432 0 47.2121 0 48C0 48.788 0.155238 49.5681 0.456846 50.296C0.758453 51.0239 1.20052 51.6853 1.75779 52.2422L19.7578 70.2423C20.3143 70.8019 20.9758 71.2462 21.7044 71.5498C22.4329 71.8533 23.2142 72.0102 24.0034 72.0112C24.7927 72.0123 25.5744 71.8577 26.3038 71.5562C27.0332 71.2546 27.6959 70.8122 28.254 70.2541C28.8121 69.696 29.2546 69.0333 29.5561 68.3039C29.8576 67.5745 30.0123 66.7928 30.0112 66.0035C30.0101 65.2142 29.8533 64.433 29.5497 63.7044C29.2462 62.9759 28.8018 62.3144 28.2422 61.7579L20.4844 54Z" fill="black"/>
<path d="M90 9.64515e-07H42C41.2119 -0.000445981 40.4315 0.154444 39.7034 0.455813C38.9752 0.757183 38.3136 1.19912 37.7564 1.75636C37.1991 2.3136 36.7572 2.97522 36.4558 3.70337C36.1544 4.43153 35.9996 5.21194 36 6V18C36 19.5913 36.6321 21.1174 37.7574 22.2426C38.8826 23.3679 40.4087 24 42 24C43.5913 24 45.1174 23.3679 46.2426 22.2426C47.3679 21.1174 48 19.5913 48 18V12H84V84H48V78C48 76.4087 47.3679 74.8826 46.2426 73.7574C45.1174 72.6321 43.5913 72 42 72C40.4087 72 38.8826 72.6321 37.7574 73.7574C36.6321 74.8826 36 76.4087 36 78V90C35.9996 90.7881 36.1544 91.5685 36.4558 92.2966C36.7572 93.0248 37.1991 93.6864 37.7564 94.2436C38.3136 94.8009 38.9752 95.2428 39.7034 95.5442C40.4315 95.8456 41.2119 96.0004 42 96H90C90.7881 96.0004 91.5685 95.8456 92.2966 95.5442C93.0248 95.2428 93.6864 94.8009 94.2436 94.2436C94.8009 93.6864 95.2428 93.0248 95.5442 92.2966C95.8456 91.5685 96.0004 90.7881 96 90V6C96.0004 5.21194 95.8456 4.43153 95.5442 3.70337C95.2428 2.97522 94.8009 2.3136 94.2436 1.75636C93.6864 1.19912 93.0248 0.757183 92.2966 0.455813C91.5685 0.154444 90.7881 -0.000445981 90 9.64515e-07Z" fill="black"/>
</svg>
