<svg width="100" height="100" viewBox="0 0 100 100" fill="none" xmlns="http://www.w3.org/2000/svg">
<path d="M34.818 20.8798L39.4333 24.2331C39.9625 24.6177 40.3564 25.16 40.5585 25.7822C40.7606 26.4045 40.7605 27.0747 40.5583 27.6969L38.7966 33.1228C38.5945 33.745 38.5945 34.4152 38.7967 35.0373C38.9989 35.6595 39.3929 36.2016 39.9221 36.5861C40.4514 36.9706 41.0887 37.1777 41.7429 37.1778C42.3971 37.1778 43.0345 36.9707 43.5637 36.5863L48.1795 33.233C48.7087 32.8484 49.3461 32.6413 50.0003 32.6413C50.6545 32.6413 51.2919 32.8484 51.8211 33.233L56.4369 36.5863C56.9661 36.9707 57.6035 37.1778 58.2577 37.1778C58.9119 37.1777 59.5493 36.9706 60.0785 36.5861C60.6077 36.2016 61.0017 35.6595 61.2039 35.0373C61.4061 34.4152 61.4061 33.745 61.2041 33.1228L59.4403 27.6969C59.2381 27.0747 59.238 26.4045 59.4401 25.7822C59.6422 25.16 60.0361 24.6177 60.5653 24.2331L65.1808 20.8798C65.71 20.4953 66.104 19.953 66.3061 19.3308C66.5083 18.7086 66.5083 18.0384 66.3061 17.4162C66.1039 16.794 65.7099 16.2518 65.1806 15.8672C64.6513 15.4827 64.0139 15.2756 63.3597 15.2756H57.6559C57.0017 15.2755 56.3643 15.0684 55.835 14.6839C55.3058 14.2993 54.9118 13.7572 54.7095 13.135L52.9461 7.70907C52.744 7.08685 52.35 6.5446 51.8208 6.16004C51.2915 5.77548 50.6541 5.56836 49.9998 5.56836C49.3456 5.56836 48.7082 5.77548 48.1789 6.16004C47.6496 6.5446 47.2557 7.08685 47.0536 7.70907L45.2905 13.135C45.0882 13.7573 44.6941 14.2996 44.1647 14.6841C43.6353 15.0687 42.9978 15.2757 42.3434 15.2756H36.6391C35.9848 15.2756 35.3474 15.4827 34.8181 15.8672C34.2888 16.2518 33.8949 16.794 33.6927 17.4162C33.4905 18.0384 33.4905 18.7086 33.6926 19.3308C33.8948 19.953 34.2887 20.4953 34.818 20.8798Z" fill="black"/>
<path d="M58.4982 68.9666C58.1688 68.8249 57.8881 68.5898 57.6909 68.2902C57.4937 67.9907 57.3887 67.6399 57.3888 67.2813C57.3865 67.025 57.4368 66.771 57.5368 66.5351C57.6367 66.2991 57.7841 66.0862 57.9698 65.9096C58.083 65.8016 58.1915 65.6952 58.2727 65.6096C58.8473 65.0046 59.3542 64.3389 59.7845 63.6241C60.9161 61.7355 61.4771 59.5598 61.3998 57.3595C61.3224 55.1592 60.6099 53.0283 59.3483 51.2239C58.0868 49.4195 56.33 48.0187 54.29 47.1905C52.25 46.3624 50.014 46.1423 47.8516 46.5567C45.6481 46.9426 43.6117 47.9825 42.0072 49.5413C40.4026 51.1 39.3042 53.1055 38.8548 55.2969C38.4393 57.1838 38.51 59.1453 39.0602 60.9974C39.6104 62.8496 40.622 64.5316 42.0002 65.8857C42.1872 66.063 42.3369 66.2758 42.4405 66.5117C42.5441 66.7477 42.5996 67.0019 42.6037 67.2596V67.2691C42.607 67.6307 42.5035 67.9852 42.3061 68.2882C42.1088 68.5911 41.8264 68.8291 41.4943 68.9722C36.9491 70.855 33.3246 74.4466 31.4005 78.9744C30.0479 82.0752 29.3694 85.428 29.4099 88.8108V91.2483C29.4099 91.771 29.5129 92.2886 29.713 92.7716C29.913 93.2545 30.2063 93.6932 30.576 94.0628C30.9457 94.4324 31.3845 94.7255 31.8675 94.9254C32.3505 95.1253 32.8681 95.2282 33.3909 95.228H66.6112C67.6665 95.2279 68.6786 94.8086 69.4248 94.0624C70.171 93.3161 70.5902 92.304 70.5902 91.2486V88.7866C70.6307 85.4052 69.951 82.0538 68.5963 78.9553C66.6687 74.4315 63.0428 70.8448 58.4982 68.9666Z" fill="black"/>
<path d="M95.1286 73.4585C93.2013 68.9349 89.5757 65.3483 85.0316 63.4699C84.7022 63.3281 84.4216 63.0929 84.2245 62.7934C84.0273 62.4939 83.9222 62.1432 83.9222 61.7846C83.9199 61.5284 83.9703 61.2744 84.0703 61.0384C84.1702 60.8024 84.3176 60.5894 84.5033 60.4128C84.6166 60.3046 84.7253 60.1984 84.8061 60.1126C85.3808 59.5081 85.8877 58.8427 86.318 58.1282C87.4498 56.2397 88.0109 54.064 87.9337 51.8636C87.8564 49.6632 87.144 47.5322 85.8824 45.7278C84.6208 43.9233 82.864 42.5225 80.824 41.6944C78.7839 40.8662 76.5478 40.6462 74.3855 41.0607C72.1819 41.4464 70.1454 42.4863 68.5409 44.0451C66.9363 45.6039 65.8379 47.6094 65.3886 49.8009C64.9731 51.6878 65.0438 53.6493 65.5939 55.5014C66.144 57.3535 67.1556 59.0355 68.5338 60.3896C68.7208 60.5668 68.8705 60.7797 68.9742 61.0156C69.0778 61.2515 69.1332 61.5057 69.1372 61.7634V61.7732C69.1406 62.1348 69.0372 62.4894 68.8398 62.7924C68.6424 63.0954 68.36 63.3334 68.0278 63.4764C66.2126 64.2199 64.5273 65.2477 63.0352 66.5212C67.2216 69.0033 70.5139 72.7481 72.4395 77.2179C74.0465 80.8612 74.8542 84.8065 74.8084 88.7882V89.7324H93.1434C94.1988 89.7324 95.2109 89.3132 95.9572 88.567C96.7034 87.8208 97.1227 86.8087 97.1228 85.7534V83.2899C97.1633 79.9084 96.4835 76.557 95.1286 73.4585Z" fill="black"/>
<path d="M36.9692 66.5201C35.4741 65.2436 33.7849 64.2139 31.9651 63.47C31.6358 63.3282 31.3552 63.093 31.158 62.7935C30.9609 62.494 30.8558 62.1432 30.8558 61.7847C30.8535 61.5284 30.9039 61.2743 31.0039 61.0383C31.104 60.8023 31.2514 60.5894 31.4372 60.4128C31.55 60.3047 31.6587 60.1984 31.74 60.1126C32.3144 59.5081 32.8212 58.8427 33.2514 58.1283C34.3833 56.2398 34.9445 54.064 34.8672 51.8636C34.79 49.6633 34.0776 47.5322 32.816 45.7278C31.5545 43.9233 29.7977 42.5225 27.7576 41.6943C25.7175 40.8662 23.4814 40.6462 21.319 41.0608C19.1155 41.4465 17.079 42.4864 15.4745 44.0452C13.8699 45.604 12.7715 47.6095 12.322 49.8009C11.9067 51.6878 11.9774 53.6493 12.5275 55.5014C13.0777 57.3535 14.0892 59.0355 15.4673 60.3897C15.6544 60.5669 15.8042 60.7797 15.9078 61.0156C16.0114 61.2515 16.0668 61.5058 16.0708 61.7634V61.7733C16.0742 62.1349 15.9707 62.4894 15.7733 62.7924C15.576 63.0954 15.2935 63.3334 14.9614 63.4764C10.4163 65.3591 6.79181 68.9507 4.86764 73.4784C3.51493 76.5792 2.8363 79.932 2.8767 83.3148V85.7534C2.87668 86.276 2.97959 86.7934 3.17955 87.2762C3.37951 87.7589 3.6726 88.1976 4.0421 88.5671C4.41159 88.9366 4.85025 89.2297 5.33302 89.4296C5.81579 89.6296 6.33322 89.7325 6.85577 89.7325H25.1923V88.8117C25.1468 84.8302 25.9526 80.8849 27.5559 77.2401C29.48 72.7606 32.7759 69.0071 36.9692 66.5201Z" fill="black"/>
</svg>
