<svg width="100" height="100" viewBox="0 0 100 100" fill="none" xmlns="http://www.w3.org/2000/svg">
<path d="M37.0779 35.0779C37.0779 35.0779 20.9955 36.8592 10.2671 38.0501C9.30009 38.1672 8.44508 38.8135 8.12445 39.7958C7.80382 40.778 8.12445 41.801 8.83696 42.4473C16.8069 49.7201 28.7822 60.6113 28.7822 60.6113C28.772 60.6113 25.4945 76.4545 23.3162 87.0251C23.133 87.9819 23.4791 88.9947 24.3137 89.6004C25.1433 90.206 26.2121 90.2162 27.0518 89.7429C36.4366 84.4092 50.4935 76.3884 50.4935 76.3884C50.4935 76.3884 64.5554 84.4092 73.9249 89.748C74.7799 90.2162 75.8487 90.206 76.6783 89.6004C77.5129 88.9947 77.859 87.9819 77.6707 87.0302C75.4924 76.4545 72.22 60.6113 72.22 60.6113C72.22 60.6113 84.1953 49.7201 92.1652 42.4626C92.8777 41.7959 93.1933 40.7729 92.8777 39.7958C92.5622 38.8186 91.7072 38.1723 90.7402 38.0603C80.0118 36.8592 63.9243 35.0779 63.9243 35.0779C63.9243 35.0779 57.2572 20.3289 52.8142 10.4963C52.3969 9.61581 51.5215 9 50.4935 9C49.4654 9 48.5849 9.6209 48.188 10.4963C43.7399 20.3289 37.0779 35.0779 37.0779 35.0779Z" fill="black"/>
</svg>
