<svg width="226" height="213" viewBox="0 0 226 213" fill="none" xmlns="http://www.w3.org/2000/svg">
<ellipse cx="113" cy="106.5" rx="113" ry="106.5" fill="url(#paint0_linear_423_81)"/>
<rect x="35" y="19" width="155" height="174" rx="20" fill="#906D31"/>
<rect x="14" y="10" width="175.811" height="175.811" rx="20" fill="#F3B141" fill-opacity="0.7"/>
<rect x="35" y="24" width="175.811" height="175.811" rx="20" fill="#F3B141" fill-opacity="0.7"/>
<path d="M67.6876 151.005C68.9037 150.92 70.0488 150.385 70.9107 149.498C71.7726 148.612 72.2928 147.434 72.3751 146.183V86.7156C72.3751 85.8631 72.7043 85.0455 73.2904 84.4426C73.8765 83.8398 74.6713 83.5011 75.5001 83.5011H156.751V77.8759C156.751 76.8102 156.34 75.7882 155.607 75.0347C154.874 74.2811 153.881 73.8578 152.845 73.8578H101.282C100.766 73.8665 100.255 73.7685 99.7769 73.5696C99.2991 73.3708 98.8651 73.0751 98.5007 72.7003C98.1363 72.3254 97.8488 71.879 97.6555 71.3876C97.4622 70.8962 97.3669 70.3698 97.3754 69.8397V65.0181C97.3754 63.9524 96.9638 62.9304 96.2313 62.1769C95.4987 61.4233 94.5051 61 93.4691 61H67.0313C65.9616 61.029 64.9443 61.4828 64.1928 62.2664C63.4412 63.0499 63.0138 64.1023 63 65.2029V146.183C63 147.462 63.4939 148.688 64.373 149.592C65.252 150.497 66.4443 151.005 67.6876 151.005Z" fill="#92621B"/>
<path d="M159.874 89.9302H81.7481C80.9193 89.9302 80.1245 90.2688 79.5384 90.8717C78.9523 91.4745 78.6231 92.2921 78.6231 93.1446V146.183C78.5408 147.434 78.0206 148.612 77.1587 149.498C76.2968 150.385 75.1517 150.92 73.9355 151.005H158.311C159.555 151.005 160.747 150.497 161.626 149.592C162.505 148.688 162.999 147.462 162.999 146.183V93.1446C162.999 92.2921 162.67 91.4745 162.084 90.8717C161.498 90.2688 160.703 89.9302 159.874 89.9302Z" fill="#92621B"/>
<defs>
<linearGradient id="paint0_linear_423_81" x1="181" y1="30.5" x2="23.5" y2="388" gradientUnits="userSpaceOnUse">
<stop stop-color="#495D9B"/>
<stop offset="1" stop-color="#192035"/>
</linearGradient>
</defs>
</svg>
