<svg width="100" height="100" viewBox="0 0 100 100" fill="none" xmlns="http://www.w3.org/2000/svg">
<path d="M49.6601 28.25H77.4322C77.8005 28.25 78.1537 28.1183 78.4141 27.8839C78.6745 27.6495 78.8208 27.3315 78.8208 27C78.8208 26.6685 78.6745 26.3505 78.4141 26.1161C78.1537 25.8817 77.8005 25.75 77.4322 25.75H49.6601C49.2918 25.75 48.9386 25.8817 48.6782 26.1161C48.4178 26.3505 48.2715 26.6685 48.2715 27C48.2715 27.3315 48.4178 27.6495 48.6782 27.8839C48.9386 28.1183 49.2918 28.25 49.6601 28.25Z" fill="black"/>
<path d="M77.4345 30.75H56.6054C56.2371 30.75 55.8839 30.8817 55.6235 31.1161C55.3631 31.3505 55.2168 31.6685 55.2168 32C55.2168 32.3315 55.3631 32.6495 55.6235 32.8839C55.8839 33.1183 56.2371 33.25 56.6054 33.25H77.4345C77.8028 33.25 78.156 33.1183 78.4164 32.8839C78.6768 32.6495 78.8231 32.3315 78.8231 32C78.8231 31.6685 78.6768 31.3505 78.4164 31.1161C78.156 30.8817 77.8028 30.75 77.4345 30.75Z" fill="black"/>
<path d="M87.1547 27H84.3775V20.75C84.3775 20.4185 84.2312 20.1005 83.9708 19.8661C83.7104 19.6317 83.3572 19.5 82.9889 19.5H74.6573V13.25C74.6573 12.9185 74.511 12.6005 74.2506 12.3661C73.9902 12.1317 73.637 12 73.2687 12H14.9473C14.579 12 14.2258 12.1317 13.9654 12.3661C13.705 12.6005 13.5587 12.9185 13.5587 13.25V27H13.1143C11.701 27.0552 10.3696 27.6125 9.41175 28.5496C8.45394 29.4868 7.94781 30.7275 8.00426 32V81.9C7.94769 83.1948 8.46174 84.4573 9.43445 85.4126C10.4072 86.3678 11.7598 86.9384 13.1976 87H86.3355C87.7455 86.9132 89.0604 86.3287 89.994 85.3736C90.9276 84.4184 91.4044 83.17 91.3206 81.9V30.75C91.3206 29.7554 90.8817 28.8016 90.1004 28.0983C89.3192 27.3951 88.2596 27 87.1547 27ZM23.2789 20.75V27.075C22.0545 27.3282 20.9674 27.9594 20.2064 28.8592C19.4453 29.7589 19.0585 30.8702 19.1131 32V79.5H16.3359V14.5H71.8801V19.5H24.6675C24.2992 19.5 23.946 19.6317 23.6856 19.8661C23.4252 20.1005 23.2789 20.4185 23.2789 20.75ZM55.2168 79.5C51.3719 79.5 47.6133 78.4736 44.4163 76.5507C41.2193 74.6278 38.7276 71.8947 37.2562 68.697C35.7848 65.4993 35.3998 61.9806 36.1499 58.5859C36.9 55.1912 38.7515 52.0731 41.4703 49.6256C44.1891 47.1782 47.6531 45.5115 51.4242 44.8363C55.1953 44.161 59.1041 44.5076 62.6564 45.8321C66.2087 47.1566 69.2448 49.3997 71.381 52.2775C73.5171 55.1554 74.6573 58.5388 74.6573 62C74.6573 66.6413 72.6091 71.0925 68.9633 74.3744C65.3175 77.6563 60.3728 79.5 55.2168 79.5ZM81.6003 37H52.9395C52.6445 36.9989 52.3613 36.896 52.148 36.7125L41.8446 27.9625C41.1156 27.3444 40.1521 27.0001 39.1507 27H26.0561V22H81.6003V37Z" fill="black"/>
<path d="M55.216 47C51.9203 47 48.6986 47.8797 45.9584 49.528C43.2181 51.1762 41.0824 53.5189 39.8212 56.2597C38.56 59.0006 38.23 62.0166 38.8729 64.9264C39.5159 67.8361 41.1029 70.5088 43.4333 72.6066C45.7637 74.7044 48.7328 76.133 51.9652 76.7118C55.1975 77.2906 58.5479 76.9935 61.5928 75.8582C64.6376 74.7229 67.24 72.8003 69.071 70.3336C70.902 67.8668 71.8793 64.9667 71.8793 62C71.8793 58.0218 70.1237 54.2064 66.9987 51.3934C63.8737 48.5804 59.6354 47 55.216 47ZM65.2695 71.6375C65.1404 71.7547 64.9868 71.8477 64.8176 71.9111C64.6484 71.9746 64.4669 72.0072 64.2836 72.0072C64.1003 72.0072 63.9188 71.9746 63.7496 71.9111C63.5803 71.8477 63.4268 71.7547 63.2977 71.6375L57.4517 66.3625C55.8869 67.3424 54.0256 67.866 52.1194 67.8625C49.9907 67.8652 47.9241 67.2176 46.2575 66.0255C44.5909 64.8334 43.4231 63.1674 42.9451 61.3001C42.4672 59.4329 42.7073 57.4749 43.6264 55.7465C44.5454 54.018 46.0888 52.6216 48.0042 51.7855C49.9196 50.9494 52.0934 50.7233 54.1702 51.144C56.2469 51.5648 58.1035 52.6075 59.4362 54.1017C60.769 55.5958 61.499 57.4529 61.5067 59.3691C61.5145 61.2853 60.7996 63.1471 59.479 64.65L65.2695 69.8625C65.3997 69.9787 65.503 70.117 65.5735 70.2693C65.644 70.4216 65.6802 70.585 65.6802 70.75C65.6802 70.915 65.644 71.0784 65.5735 71.2307C65.503 71.383 65.3997 71.5213 65.2695 71.6375Z" fill="black"/>
<path d="M58.7297 59.4125C58.7297 60.5923 58.3409 61.7456 57.6125 62.7263C56.884 63.7071 55.8487 64.4714 54.6376 64.9223C53.4265 65.3732 52.094 65.4905 50.8087 65.2595C49.5235 65.0284 48.3433 64.4593 47.4175 63.6241C46.4918 62.789 45.862 61.7254 45.608 60.568C45.354 59.4106 45.4872 58.2113 45.9906 57.122C46.4941 56.0328 47.3452 55.1024 48.4363 54.4487C49.5274 53.7951 50.8093 53.4475 52.12 53.45C52.9891 53.45 53.8498 53.6043 54.6526 53.9041C55.4555 54.2039 56.1847 54.6433 56.7987 55.1971C57.4126 55.7509 57.8992 56.4083 58.2306 57.1317C58.5619 57.855 58.7315 58.63 58.7297 59.4125Z" fill="black"/>
</svg>
