<svg width="100" height="100" viewBox="0 0 100 100" fill="none" xmlns="http://www.w3.org/2000/svg">
<path d="M43.453 83.0183L58.2968 76.7179C58.8522 80.3854 56.8884 84.1041 53.3164 85.6204C49.7443 87.1366 45.7055 85.9658 43.453 83.0183ZM66.0893 8.72463C74.7797 13.4728 81.3038 19.5691 85.5963 27.0042C89.8888 34.4393 91.9068 43.1375 91.6734 53.0379C91.6326 54.7633 90.2009 56.1287 88.4755 56.0883C86.7501 56.0475 85.3843 54.6158 85.4251 52.8904C85.6322 44.0933 83.8772 36.5264 80.1838 30.1292C76.4901 23.7319 70.8147 18.4285 63.0926 14.2094C61.578 13.3819 61.0209 11.4833 61.8484 9.96872C62.6759 8.45413 64.5747 7.89713 66.0893 8.72463ZM27.9649 27.1478C39.8888 21.8389 53.8155 26.8587 59.6293 38.5874L60.0389 39.46L65.403 51.5095L72.4793 57.6333C72.8655 57.9679 73.2001 58.357 73.588 58.9866L73.8326 59.4629C74.9968 62.0933 73.808 65.1695 71.1776 66.3337L28.15 85.3758C27.4861 85.6695 26.7682 85.8216 26.0422 85.8216C23.1657 85.8216 20.8339 83.4895 20.8339 80.6145L20.8294 70.8525L15.6528 59.2216C10.1799 46.9295 15.691 32.6124 27.9649 27.1478ZM65.0993 23.7273C69.1284 25.9243 72.3576 29.1216 74.7505 33.2661C77.143 37.4106 78.2976 41.8058 78.1855 46.3937C78.1434 48.1191 76.7109 49.4837 74.9855 49.4416C73.2601 49.3995 71.8955 47.9666 71.9376 46.2412C72.0209 42.8179 71.1639 39.5539 69.3376 36.3911C67.5118 33.2283 65.1139 30.8539 62.1072 29.2146C60.5922 28.3883 60.0334 26.4902 60.8597 24.9749C61.6859 23.4597 63.5843 22.9011 65.0993 23.7273Z" fill="black"/>
</svg>
