<svg width="100" height="100" viewBox="0 0 100 100" fill="none" xmlns="http://www.w3.org/2000/svg">
<path d="M91.9999 49.9244C92.0423 71.9632 73.3952 89.9845 50.5301 90C40.6546 90.0068 31.5835 86.6887 24.4551 81.1434C22.6014 79.7014 22.4629 77.0238 24.1473 75.4003L26.0327 73.583C27.4733 72.1945 29.7732 72.0425 31.3693 73.263C36.6212 77.28 43.2678 79.6775 50.5 79.6775C67.5191 79.6775 81.2903 66.4016 81.2903 50.0001C81.2903 33.596 67.5165 20.3226 50.5 20.3226C42.3315 20.3226 34.9125 23.3821 29.4039 28.3762L37.897 36.5623C39.5838 38.1881 38.3892 40.9678 36.0039 40.9678H11.6774C10.1986 40.9678 9 39.8125 9 38.3871V14.9398C9 12.6408 11.8839 11.4894 13.5707 13.115L21.8325 21.0782C29.2829 14.2155 39.3807 10 50.5 10C73.3936 10 91.9576 27.8678 91.9999 49.9244ZM61.7264 62.6315L63.3701 60.5944C64.7319 58.9069 64.4165 56.4748 62.6656 55.1623L55.8548 50.0564V33.2258C55.8548 31.0879 54.0567 29.3549 51.8387 29.3549H49.1613C46.9432 29.3549 45.1451 31.0879 45.1451 33.2258V55.1051L56.0906 63.3106C57.8414 64.623 60.3646 64.3191 61.7264 62.6315Z" fill="black"/>
</svg>
