<svg width="100" height="133" viewBox="0 0 100 133" fill="none" xmlns="http://www.w3.org/2000/svg">
<path d="M76.25 25H23.75C21.6789 25 20 26.7419 20 28.8906V31.4844C20 33.6331 21.6789 35.375 23.75 35.375C23.75 50.1213 31.7212 62.5663 42.6316 66.5C31.7212 70.4337 23.75 82.8787 23.75 97.625C21.6789 97.625 20 99.3669 20 101.516V104.109C20 106.258 21.6789 108 23.75 108H76.25C78.3211 108 80 106.258 80 104.109V101.516C80 99.3669 78.3211 97.625 76.25 97.625C76.25 82.8787 68.2788 70.4337 57.3684 66.5C68.2788 62.5663 76.25 50.1213 76.25 35.375C78.3211 35.375 80 33.6331 80 31.4844V28.8906C80 26.7419 78.3211 25 76.25 25ZM66.25 97.625H33.75C33.75 85.0683 40.9694 74.2812 50 74.2812C59.0291 74.2812 66.25 85.0643 66.25 97.625Z" fill="black"/>
</svg>
