<svg width="100" height="100" viewBox="0 0 100 100" fill="none" xmlns="http://www.w3.org/2000/svg">
<path d="M38.1237 39.5583C45.7331 39.5583 51.9018 33.613 51.9018 26.2791C51.9018 18.9453 45.7331 13 38.1237 13C30.5143 13 24.3457 18.9453 24.3457 26.2791C24.3457 33.613 30.5143 39.5583 38.1237 39.5583Z" fill="black"/>
<path d="M68.3023 51.0066L62.1193 63.3367L47.6035 65.0328L58.1316 74.4875L55.7966 87.9937L68.3023 81.5178L80.8063 87.9937L78.2568 74.3073L88.9994 65.0688L74.4836 63.3022L68.3023 51.0066Z" fill="black"/>
<path d="M53.7706 75.9408L38.7299 62.433L59.4677 60.0087L61.2324 56.488C56.4615 48.9973 47.911 43.9841 38.1238 43.9841C23.1433 43.9841 11 55.6893 11 70.1274V77.4318V88H51.6858L53.7706 75.9408Z" fill="black"/>
</svg>
