<svg width="100" height="100" viewBox="0 0 100 100" fill="none" xmlns="http://www.w3.org/2000/svg">
<path d="M58.334 25V8.375C58.584 8.58333 58.834 8.83333 59.0423 9.04167L82.6256 32.625C82.834 32.8333 83.084 33.0833 83.2923 33.3333H66.6673C64.4592 33.3267 62.3434 32.4466 60.782 30.8853C59.2207 29.3239 58.3406 27.2081 58.334 25Z" fill="black"/>
<path d="M87.25 41.6666H66.6667C62.2464 41.6666 58.0072 39.9107 54.8816 36.7851C51.7559 33.6595 50 29.4202 50 25V4.41663C49.0927 4.25082 48.1723 4.16715 47.25 4.16663H25C21.6848 4.16663 18.5054 5.48359 16.1612 7.82779C13.817 10.172 12.5 13.3514 12.5 16.6666V83.3333C12.5 86.6485 13.817 89.8279 16.1612 92.1721C18.5054 94.5163 21.6848 95.8333 25 95.8333H75C78.3152 95.8333 81.4946 94.5163 83.8388 92.1721C86.183 89.8279 87.5 86.6485 87.5 83.3333V44.4166C87.4995 43.4943 87.4158 42.5739 87.25 41.6666ZM29.1667 58.3333H45.8333C46.9384 58.3333 47.9982 58.7723 48.7796 59.5537C49.561 60.3351 50 61.3949 50 62.5C50 63.605 49.561 64.6648 48.7796 65.4462C47.9982 66.2276 46.9384 66.6666 45.8333 66.6666H29.1667C28.0616 66.6666 27.0018 66.2276 26.2204 65.4462C25.439 64.6648 25 63.605 25 62.5C25 61.3949 25.439 60.3351 26.2204 59.5537C27.0018 58.7723 28.0616 58.3333 29.1667 58.3333ZM70.8333 83.3333H29.1667C28.0616 83.3333 27.0018 82.8943 26.2204 82.1129C25.439 81.3315 25 80.2717 25 79.1666C25 78.0616 25.439 77.0017 26.2204 76.2203C27.0018 75.4389 28.0616 75 29.1667 75H70.8333C71.9384 75 72.9982 75.4389 73.7796 76.2203C74.561 77.0017 75 78.0616 75 79.1666C75 80.2717 74.561 81.3315 73.7796 82.1129C72.9982 82.8943 71.9384 83.3333 70.8333 83.3333Z" fill="black"/>
</svg>
