<svg width="100" height="100" viewBox="0 0 100 100" fill="none" xmlns="http://www.w3.org/2000/svg">
<path d="M89.1973 82.3027L70.8203 63.9258C75.2447 58.0358 77.6331 50.8666 77.625 43.5C77.625 24.6836 62.3164 9.375 43.5 9.375C24.6836 9.375 9.375 24.6836 9.375 43.5C9.375 62.3164 24.6836 77.625 43.5 77.625C50.8666 77.6331 58.0358 75.2447 63.9258 70.8203L82.3027 89.1973C83.233 90.0288 84.4463 90.4727 85.6935 90.4378C86.9407 90.4029 88.1273 89.8918 89.0096 89.0096C89.8918 88.1273 90.4029 86.9407 90.4378 85.6935C90.4727 84.4463 90.0288 83.233 89.1973 82.3027ZM19.125 43.5C19.125 38.6791 20.5546 33.9664 23.2329 29.958C25.9113 25.9495 29.7181 22.8253 34.1721 20.9804C38.626 19.1356 43.527 18.6528 48.2553 19.5934C52.9836 20.5339 57.3268 22.8554 60.7357 26.2643C64.1446 29.6732 66.4661 34.0164 67.4066 38.7447C68.3472 43.473 67.8645 48.374 66.0196 52.8279C64.1747 57.2819 61.0505 61.0887 57.042 63.7671C53.0336 66.4454 48.3209 67.875 43.5 67.875C37.0377 67.8672 30.8424 65.2967 26.2728 60.7272C21.7033 56.1576 19.1328 49.9623 19.125 43.5Z" fill="black"/>
</svg>
