<svg width="100" height="100" viewBox="0 0 100 100" fill="none" xmlns="http://www.w3.org/2000/svg">
<path d="M85.5312 6.25H43.9063C46.6301 8.62217 48.8125 11.5518 50.306 14.8405C51.7994 18.1293 52.5689 21.7005 52.5625 25.3125C52.5737 28.6623 51.9039 31.9795 50.5938 35.0625H73.9688C74.3778 35.0201 74.7913 35.0641 75.1823 35.1917C75.5733 35.3192 75.9331 35.5275 76.2386 35.8029C76.544 36.0783 76.7882 36.4148 76.9553 36.7906C77.1225 37.1664 77.2088 37.5731 77.2088 37.9844C77.2088 38.3957 77.1225 38.8023 76.9553 39.1781C76.7882 39.5539 76.544 39.8904 76.2386 40.1659C75.9331 40.4413 75.5733 40.6495 75.1823 40.7771C74.7913 40.9046 74.3778 40.9486 73.9688 40.9063H47.1875C46.6875 41.5313 46.125 42.1563 45.5625 42.75C43.2008 45.2214 40.364 47.1901 37.2226 48.538C34.0811 49.8859 30.6997 50.5851 27.2812 50.5938C26.9069 50.6249 26.5306 50.6249 26.1562 50.5938V87.5C26.1562 89.1576 26.8147 90.7473 27.9868 91.9194C29.1589 93.0915 30.7486 93.75 32.4062 93.75H85.5312C87.1889 93.75 88.7786 93.0915 89.9507 91.9194C91.1228 90.7473 91.7812 89.1576 91.7812 87.5V12.5C91.7812 10.8424 91.1228 9.25268 89.9507 8.08058C88.7786 6.90848 87.1889 6.25 85.5312 6.25ZM73.9688 64.9375H43.9687C43.5597 64.9799 43.1462 64.9359 42.7552 64.8083C42.3642 64.6808 42.0044 64.4725 41.6989 64.1971C41.3935 63.9217 41.1493 63.5852 40.9822 63.2094C40.815 62.8336 40.7287 62.4269 40.7287 62.0156C40.7287 61.6043 40.815 61.1976 40.9822 60.8219C41.1493 60.4461 41.3935 60.1096 41.6989 59.8341C42.0044 59.5587 42.3642 59.3505 42.7552 59.2229C43.1462 59.0954 43.5597 59.0514 43.9687 59.0937H73.9688C74.3778 59.0514 74.7913 59.0954 75.1823 59.2229C75.5733 59.3505 75.9331 59.5587 76.2386 59.8341C76.544 60.1096 76.7882 60.4461 76.9553 60.8219C77.1225 61.1976 77.2088 61.6043 77.2088 62.0156C77.2088 62.4269 77.1225 62.8336 76.9553 63.2094C76.7882 63.5852 76.544 63.9217 76.2386 64.1971C75.9331 64.4725 75.5733 64.6808 75.1823 64.8083C74.7913 64.9359 74.3778 64.9799 73.9688 64.9375ZM73.9688 52.9063H43.9687C43.198 52.9063 42.4587 52.6001 41.9137 52.055C41.3687 51.51 41.0625 50.7708 41.0625 50C41.0625 49.2292 41.3687 48.49 41.9137 47.945C42.4587 47.3999 43.198 47.0937 43.9687 47.0937H73.9688C74.7395 47.0937 75.4788 47.3999 76.0238 47.945C76.5688 48.49 76.875 49.2292 76.875 50C76.875 50.7708 76.5688 51.51 76.0238 52.055C75.4788 52.6001 74.7395 52.9063 73.9688 52.9063Z" fill="black"/>
<path d="M27.2815 44.3438C29.8617 44.3434 32.4146 43.8166 34.7842 42.7957C37.1538 41.7748 39.2902 40.2812 41.0628 38.4063C42.0901 37.4156 42.9926 36.3032 43.7503 35.0938C45.5387 32.1454 46.4795 28.7609 46.469 25.3125C46.469 20.8531 44.9056 16.5348 42.0507 13.109C39.1959 9.6832 35.2303 7.36669 30.844 6.56253C29.812 6.38164 28.7667 6.28756 27.719 6.28128C22.7629 6.27206 17.9987 8.19657 14.4396 11.6455C10.8805 15.0945 8.80722 19.7959 8.66067 24.7498C8.51413 29.7037 10.3059 34.5194 13.6549 38.1727C17.004 41.826 21.646 44.0288 26.594 44.3125C26.8225 44.3346 27.052 44.345 27.2815 44.3438ZM22.469 32.7188L17.2503 27.5C16.9574 27.2095 16.7249 26.8639 16.5662 26.4831C16.4076 26.1023 16.3259 25.6938 16.3259 25.2813C16.3259 24.8687 16.4076 24.4603 16.5662 24.0795C16.7249 23.6987 16.9574 23.353 17.2503 23.0625C17.8358 22.4805 18.6278 22.1538 19.4534 22.1538C20.279 22.1538 21.071 22.4805 21.6565 23.0625L24.7815 26.1875L28.844 22.125L32.969 17.9688C33.5545 17.3867 34.3465 17.0601 35.1721 17.0601C35.9977 17.0601 36.7897 17.3867 37.3753 17.9688C37.6682 18.2593 37.9006 18.6049 38.0593 18.9857C38.2179 19.3665 38.2996 19.775 38.2996 20.1875C38.2996 20.6001 38.2179 21.0085 38.0593 21.3893C37.9006 21.7701 37.6682 22.1158 37.3753 22.4063L27.5628 32.0313L26.8753 32.7188C26.2897 33.3008 25.4977 33.6275 24.6721 33.6275C23.8465 33.6275 23.0545 33.3008 22.469 32.7188Z" fill="black"/>
</svg>
