<svg width="100" height="100" viewBox="0 0 100 100" fill="none" xmlns="http://www.w3.org/2000/svg">
<path d="M11.9061 87.9999C12.9195 87.9294 13.8737 87.4835 14.5919 86.7447C15.3101 86.006 15.7436 85.0245 15.8122 83.9821V34.4286C15.8122 33.7182 16.0865 33.0368 16.5749 32.5345C17.0633 32.0322 17.7256 31.75 18.4163 31.75H86.1219V27.0625C86.1219 26.1745 85.7789 25.3229 85.1685 24.6949C84.558 24.067 83.7301 23.7143 82.8668 23.7143H39.8998C39.4704 23.7215 39.0439 23.6399 38.6458 23.4742C38.2477 23.3085 37.8861 23.0621 37.5824 22.7497C37.2787 22.4374 37.0392 22.0654 36.8781 21.6559C36.717 21.2464 36.6376 20.8078 36.6447 20.3661V16.3482C36.6447 15.4602 36.3017 14.6086 35.6913 13.9807C35.0809 13.3528 34.2529 13 33.3896 13H11.3592C10.4679 13.0242 9.62018 13.4023 8.99393 14.0552C8.36767 14.7082 8.01147 15.5851 8 16.5022V83.9821C8 85.0477 8.41153 86.0696 9.14407 86.8231C9.8766 87.5766 10.8701 87.9999 11.9061 87.9999Z" fill="black"/>
<path d="M88.7246 37.1074C89.4152 37.1074 90.0781 37.3893 90.5664 37.8916C91.0548 38.3939 91.3291 39.0757 91.3291 39.7861V83.9824C91.329 85.0479 90.917 86.0698 90.1846 86.8232C89.4521 87.5766 88.4587 88 87.4229 88H17.1133C18.1265 87.9295 19.0807 87.4837 19.7988 86.7451C20.517 86.0064 20.9509 85.0247 21.0195 83.9824V39.7861C21.0195 39.0757 21.2939 38.3939 21.7822 37.8916C22.2705 37.3894 22.9326 37.1075 23.623 37.1074H88.7246ZM56 51C48.8203 51 43 56.8203 43 64C43 71.1797 48.8203 77 56 77C63.1797 77 69 71.1797 69 64C69 56.8203 63.1797 51 56 51Z" fill="black"/>
<rect x="55" y="55" width="2" height="11" rx="1" fill="black"/>
<rect x="63" y="64" width="2" height="8" rx="1" transform="rotate(90 63 64)" fill="black"/>
</svg>
