<svg width="100" height="100" viewBox="0 0 100 100" fill="none" xmlns="http://www.w3.org/2000/svg">
<path d="M50.0007 12.5C50.0007 12.5 24.2257 34.75 9.82148 46.8C8.97565 47.5667 8.33398 48.6833 8.33398 50C8.33398 52.3042 10.1965 54.1667 12.5007 54.1667H20.834V83.3333C20.834 85.6375 22.6965 87.5 25.0007 87.5H37.5007C39.8048 87.5 41.6673 85.6333 41.6673 83.3333V66.6667H58.334V83.3333C58.334 85.6333 60.1965 87.5 62.5007 87.5H75.0007C77.3048 87.5 79.1673 85.6375 79.1673 83.3333V54.1667H87.5007C89.8048 54.1667 91.6673 52.3042 91.6673 50C91.6673 48.6833 91.0257 47.5667 90.0715 46.8C75.7673 34.75 50.0007 12.5 50.0007 12.5Z" fill="black"/>
</svg>
