<svg width="662" height="895" viewBox="0 0 662 895" fill="none" xmlns="http://www.w3.org/2000/svg">
<ellipse cx="337" cy="312.5" rx="226" ry="223.5" fill="url(#paint0_linear_225_69)"/>
<mask id="mask0_225_69" style="mask-type:alpha" maskUnits="userSpaceOnUse" x="0" y="469" width="656" height="426">
<rect y="469" width="656" height="426" fill="#D9D9D9"/>
</mask>
<g mask="url(#mask0_225_69)">
<ellipse cx="328" cy="883.5" rx="328" ry="331.5" fill="url(#paint1_linear_225_69)"/>
</g>
<rect x="47" y="227" width="64" height="174" rx="20" fill="#4D4F4E"/>
<rect x="563" y="239" width="64" height="174" rx="20" fill="#4D4F4E"/>
<path d="M332.409 0C398.664 0.000131848 498.117 40.9546 523.131 51.7275C526.741 53.2824 529 56.825 529 60.7559V71.6289C555.851 90.1201 578.49 116.309 597.386 152.913C608.248 173.955 618.692 195.978 626.407 212.707C629.521 219.459 632.194 225.36 634.277 230H642C653.046 230 662 238.954 662 250V401C662 412.046 653.046 421 642 421H637.418C637.294 421.32 637.16 421.669 637.013 422.044C636.129 424.301 634.831 427.533 633.158 431.485C629.816 439.38 624.952 450.201 618.859 461.896C606.934 484.786 589.381 512.881 568.237 527.69C541.33 546.537 500.98 550.4 469.334 550.174C453.168 550.058 438.586 548.86 428.051 547.692C422.776 547.108 418.497 546.529 415.52 546.094C414.031 545.876 412.865 545.694 412.062 545.564C411.661 545.5 411.35 545.447 411.134 545.411C411.026 545.393 410.941 545.379 410.882 545.369C410.852 545.364 410.829 545.359 410.812 545.356C410.803 545.355 410.795 545.354 410.789 545.353C410.786 545.352 410.784 545.352 410.782 545.352C410.78 545.351 410.777 545.35 412.5 535.5C414.166 525.973 414.219 525.66 414.22 525.649C414.22 525.649 414.222 525.65 414.226 525.65C414.233 525.652 414.246 525.654 414.266 525.657C414.304 525.664 414.367 525.674 414.453 525.688C414.625 525.717 414.892 525.762 415.247 525.819C415.958 525.934 417.026 526.101 418.413 526.304C421.188 526.71 425.235 527.258 430.253 527.813C440.304 528.927 454.174 530.066 469.477 530.175C500.767 530.398 535.418 526.26 556.763 511.31C573.595 499.519 589.292 475.363 601.122 452.654C606.908 441.549 611.548 431.232 614.741 423.689C615.157 422.707 615.547 421.773 615.912 420.891C605.848 419.847 598 411.341 598 401V250C598 240.805 604.205 233.06 612.656 230.723C611.316 227.773 609.84 224.54 608.245 221.082C600.594 204.491 590.288 182.763 579.614 162.087C564.961 133.701 548.187 112.512 529 96.665V114.479C529 121.994 521.03 126.926 514.267 123.65C479.341 106.734 390.133 66.5337 332.409 67.2383C277.636 67.9069 197.942 105.982 165.055 122.969C158.26 126.478 150 121.553 150 113.905V93.1553C130.282 106.323 112.105 123.193 95.3887 144.646C83.5962 159.781 72.6928 179.34 64.6426 195.412C60.6463 203.39 57.4092 210.395 55.1748 215.397C54.9247 215.957 54.6883 216.492 54.4639 217H56C67.0457 217 76 225.954 76 237V388C76 399.046 67.0457 408 56 408H32C20.9543 408 12 399.046 12 388V237C12 225.954 20.9543 217 32 217H36.4199C33.2637 215.703 33.2507 215.698 33.251 215.697C33.2513 215.697 33.2524 215.695 33.2529 215.693C33.254 215.691 33.2552 215.687 33.2568 215.684C33.2603 215.675 33.2656 215.664 33.2715 215.649C33.2834 215.621 33.2997 215.579 33.3213 215.527C33.3645 215.423 33.4274 215.273 33.5088 215.078C33.6717 214.689 33.9105 214.123 34.2207 213.396C34.8411 211.944 35.7491 209.848 36.9141 207.24C39.2427 202.027 42.6066 194.749 46.7607 186.455C55.0114 169.983 66.6079 149.042 79.6113 132.354C100.908 105.02 124.415 84.6162 150 69.5322V60.5732C150 56.7365 152.146 53.2655 155.63 51.6592C179.227 40.782 271.744 -6.65688e-05 332.409 0Z" fill="url(#paint2_linear_225_69)"/>
<ellipse cx="377.5" cy="526" rx="69.5" ry="57" fill="#4D4F4E"/>
<defs>
<linearGradient id="paint0_linear_225_69" x1="337" y1="89" x2="337" y2="1191.5" gradientUnits="userSpaceOnUse">
<stop stop-color="#F4C06A"/>
<stop offset="0.149038" stop-color="#EAB866"/>
<stop offset="1" stop-color="#8E703E"/>
</linearGradient>
<linearGradient id="paint1_linear_225_69" x1="328" y1="552" x2="328" y2="1215" gradientUnits="userSpaceOnUse">
<stop stop-color="#099D49"/>
<stop offset="0.278846" stop-color="#099545"/>
<stop offset="0.649038" stop-color="#006920"/>
</linearGradient>
<linearGradient id="paint2_linear_225_69" x1="300" y1="-28.5" x2="337" y2="811" gradientUnits="userSpaceOnUse">
<stop stop-color="#0185DA"/>
<stop offset="0.567308" stop-color="#0175C0"/>
<stop offset="1" stop-color="#014774"/>
</linearGradient>
</defs>
</svg>
