<svg width="100" height="100" viewBox="0 0 100 100" fill="none" xmlns="http://www.w3.org/2000/svg">
<path d="M50.0007 50C59.2054 50 66.6673 42.538 66.6673 33.3333C66.6673 24.1285 59.2054 16.6666 50.0007 16.6666C40.7959 16.6666 33.334 24.1285 33.334 33.3333C33.334 42.538 40.7959 50 50.0007 50Z" fill="black"/>
<path d="M83.3327 79.1666V83.3333C83.3327 84.4384 82.8937 85.4982 82.1123 86.2796C81.3309 87.061 80.2711 87.5 79.166 87.5H20.8327C19.7276 87.5 18.6678 87.061 17.8864 86.2796C17.105 85.4982 16.666 84.4384 16.666 83.3333V79.1666C16.666 72.5362 19.2999 66.1774 23.9883 61.489C28.6768 56.8005 35.0356 54.1666 41.666 54.1666H58.3327C64.9631 54.1666 71.3219 56.8005 76.0104 61.489C80.6988 66.1774 83.3327 72.5362 83.3327 79.1666Z" fill="black"/>
</svg>
